<svg width="152" height="42" viewBox="0 0 152 42" fill="none" xmlns="http://www.w3.org/2000/svg">
<path opacity="0.8" d="M22.1888 16.5757H33.1502L22.1888 0H11.2276L22.1888 16.5757Z" fill="white"/>
<path opacity="0.9" d="M10.9627 16.5757H0.00134277L10.9627 0H21.924L10.9627 16.5757Z" fill="white"/>
<path opacity="0.6" d="M22.1906 33.1516V16.576H33.1516V33.1516H22.1906Z" fill="white"/>
<path d="M0 33.1516V16.576H10.9613V33.1516H0Z" fill="white"/>
<path d="M61.1761 10.6165V33.1729H56.6518V23.5748H46.9896V33.1729H42.4657V10.6165H46.9896V19.891H56.6518V10.6165H61.1761Z" fill="white"/>
<path d="M72.2862 33.4635C70.5628 33.4635 69.0114 33.0866 67.6326 32.3324C66.2538 31.557 65.1661 30.4688 64.369 29.0688C63.5931 27.6683 63.2056 26.0524 63.2056 24.2215C63.2056 22.3902 63.6042 20.7743 64.4013 19.374C65.2196 17.9736 66.3295 16.8965 67.7295 16.1424C69.13 15.3669 70.6919 14.9791 72.4153 14.9791C74.1387 14.9791 75.7006 15.3669 77.1011 16.1424C78.5016 16.8965 79.6004 17.9736 80.3975 19.374C81.2158 20.7743 81.6255 22.3902 81.6255 24.2215C81.6255 26.0524 81.2052 27.6683 80.3652 29.0688C79.5464 30.4688 78.426 31.557 77.0042 32.3324C75.6038 33.0866 74.0312 33.4635 72.2862 33.4635ZM72.2862 29.5208C73.1049 29.5208 73.8698 29.3271 74.5806 28.9396C75.3131 28.53 75.8948 27.9266 76.3257 27.1295C76.7565 26.3324 76.9719 25.3632 76.9719 24.2215C76.9719 22.5193 76.5194 21.216 75.6148 20.3111C74.7315 19.3848 73.6433 18.9215 72.3507 18.9215C71.0582 18.9215 69.97 19.3848 69.0871 20.3111C68.225 21.216 67.7941 22.5193 67.7941 24.2215C67.7941 25.9232 68.2143 27.2374 69.0544 28.1637C69.9165 29.0688 70.9936 29.5208 72.2862 29.5208Z" fill="white"/>
<path d="M105.884 15.0114C108.082 15.0114 109.849 15.69 111.184 17.0473C112.541 18.383 113.22 20.2573 113.22 22.6702V33.1729H108.696V23.2842C108.696 21.8838 108.34 20.8174 107.629 20.0849C106.918 19.3309 105.949 18.9539 104.721 18.9539C103.493 18.9539 102.513 19.3309 101.78 20.0849C101.069 20.8174 100.714 21.8838 100.714 23.2842V33.1729H96.1897V23.2842C96.1897 21.8838 95.8341 20.8174 95.1232 20.0849C94.4124 19.3309 93.4427 18.9539 92.2148 18.9539C90.9652 18.9539 89.9743 19.3309 89.2418 20.0849C88.5309 20.8174 88.1753 21.8838 88.1753 23.2842V33.1729H83.6514V15.2699H88.1753V17.435C88.757 16.681 89.5005 16.0886 90.4051 15.6577C91.3314 15.2268 92.344 15.0114 93.4427 15.0114C94.8432 15.0114 96.0929 15.313 97.1917 15.9162C98.29 16.4979 99.1411 17.3381 99.7444 18.4368C100.326 17.4028 101.166 16.5733 102.265 15.9485C103.385 15.3238 104.592 15.0114 105.884 15.0114Z" fill="white"/>
<path d="M132.863 23.8336C132.863 24.4798 132.82 25.0615 132.734 25.5786H119.646C119.754 26.8712 120.206 27.8837 121.003 28.6162C121.8 29.3488 122.781 29.715 123.944 29.715C125.625 29.715 126.82 28.9931 127.531 27.5497H132.411C131.893 29.2731 130.903 30.6953 129.438 31.8153C127.972 32.9141 126.174 33.4635 124.041 33.4635C122.318 33.4635 120.766 33.0866 119.387 32.3324C118.03 31.557 116.964 30.4688 116.188 29.0688C115.434 27.6683 115.057 26.0524 115.057 24.2215C115.057 22.3685 115.434 20.742 116.188 19.3417C116.942 17.9413 117.998 16.8641 119.355 16.1101C120.712 15.3561 122.274 14.9791 124.041 14.9791C125.743 14.9791 127.262 15.3453 128.598 16.0778C129.955 16.8103 130.999 17.8552 131.732 19.2124C132.486 20.5481 132.863 22.0885 132.863 23.8336ZM128.177 22.541C128.156 21.3776 127.735 20.4512 126.917 19.7618C126.098 19.0508 125.096 18.6954 123.912 18.6954C122.791 18.6954 121.843 19.04 121.068 19.7294C120.314 20.3973 119.851 21.3345 119.678 22.541H128.177Z" fill="white"/>
<path d="M152 15.2699L140.916 41.6394H136.101L139.978 32.7203L132.804 15.2699H137.878L142.499 27.7762L147.185 15.2699H152Z" fill="white"/>
</svg>
